<?xml version="1.0" encoding="utf-8"?>
<!-- Generator: Adobe Illustrator 24.0.1, SVG Export Plug-In . SVG Version: 6.00 Build 0)  -->
<svg version="1.1" id="Layer_1" xmlns="http://www.w3.org/2000/svg" xmlns:xlink="http://www.w3.org/1999/xlink" x="0px" y="0px"
	 width="68.9px" height="34px" viewBox="0 0 68.9 34" style="enable-background:new 0 0 68.9 34;" xml:space="preserve">
<style type="text/css">
	.st0{fill:#FFFFFF;}
	.st1{opacity:0.5;fill-rule:evenodd;clip-rule:evenodd;fill:#FFFFFF;enable-background:new    ;}
</style>
<g id="Group_17" transform="translate(-1113.639 -434.869)">
	<path id="Path_3" class="st0" d="M1131.6,466.6c-0.7,0-1.1,0-1.4-0.4c-0.2-0.3-0.1-0.7,0-1.4c0.1-0.5,0.2-1,0.2-1.6
		c0-3.3-2.6-6-5.9-6s-6,2.6-6,5.9c0,0.1,0,0.1,0,0.2c0,0.2,0,0.5,0,0.7s0.1,0.4,0.1,0.6c0.1,0.3,0.1,0.6-0.1,0.9
		c-0.2,0.2-0.5,0.3-0.9,0.3l0,0h-2c-0.4,0-0.9-0.2-1.2-0.5c-0.6-0.4-0.9-1.1-0.9-1.8v-2.9c0-1,0.2-1.4,0.8-1.5l0,0l0,0
		c0.1-0.5,0.1-1,0.1-1.4v-1c0-1,0-2,0.1-3.1c0.3-2.5,6.1-10.5,7.8-11.7c2.3-1.7,4.2-1.9,7.1-1.9l46.4-0.2h1.1c1,0,1.4,0,2.1,0
		c1,0,1.8,0.7,1.9,1.7l0.8,8.8c0,0.3,0,0.5,0,0.8v0.4c0.1,2.5,0.1,4.9,0.1,8.2h0.1c0.2,0.1,0.6,0.2,0.6,0.7v0.2c0,1.8,0,3.6-0.7,4.3
		c-0.5,0.4-1.1,0.6-1.7,0.7c-1.1,0.2-2.2,0.3-3.4,0.4h-0.6c-0.3,0-0.6-0.1-0.8-0.3c-0.2-0.3-0.2-0.6-0.1-0.9c0.1-0.5,0.2-1,0.2-1.4
		c0-3.3-2.6-6-5.9-6s-6,2.6-6,5.9c0,0.1,0,0.1,0,0.2c0,0.5,0.1,1,0.2,1.5c0.2,0.8,0.3,1.2,0.1,1.5c-0.2,0.3-0.7,0.3-1.2,0.3
		L1131.6,466.6L1131.6,466.6z M1130.9,465.7c0.2,0,0.5,0,0.7,0h30.9h0.5c0-0.3-0.1-0.5-0.2-0.7c-0.1-0.6-0.2-1.1-0.2-1.7
		c0-3.8,3-6.8,6.8-6.8s6.8,3,6.8,6.8c0,0.6-0.1,1.1-0.2,1.6v0.1h0.1h0.6c1.1-0.1,2.3-0.2,3.3-0.4c0.9-0.2,1.2-0.4,1.3-0.4
		c0.6-0.6,0.5-2.7,0.5-3.8v-0.1h-0.1c-0.2-0.1-0.6-0.3-0.6-0.7c0-3.3,0-5.8-0.1-8.2V451c0-0.2,0-0.5,0-0.7l-0.8-8.8
		c-0.1-0.5-0.6-0.9-1.1-0.9c-0.7-0.1-1.3-0.1-2,0h-1.1l-46.4,0.2c-2.7,0-4.5,0.1-6.7,1.6c-1.5,1.1-7.2,9-7.5,11.2
		c-0.1,0.7-0.1,2-0.1,2.9v1.1c0.1,0.6,0,1.2-0.1,1.7c-0.1,0.3-0.4,0.6-0.7,0.6l0,0c-0.1,0.2-0.1,0.4-0.1,0.7v2.9
		c0,0.5,0.2,0.9,0.6,1.2c0.2,0.2,0.4,0.3,0.7,0.3l2,0.1c0.1,0,0.1,0,0.2,0c0-0.1,0-0.1,0-0.2c0-0.2-0.1-0.4-0.1-0.6
		c0-0.3,0-0.5,0-0.8c0-3.8,3-6.8,6.8-6.8s6.8,3,6.8,6.8c0,0.6-0.1,1.2-0.2,1.8L1130.9,465.7z"/>
	<path id="Path_4" class="st1" d="M1121.9,450.5c0.2,0,5-0.5,7.9-1c0.7-0.1,1.3-0.3,1.4-1.1v-6c0-0.4,0-0.5-0.4-0.5h-2.9
		c-1.9,0-3.4,0.2-4.7,1.6c-1.3,1.6-2.5,3.4-3.3,5.3C1118.8,450.8,1121.4,450.5,1121.9,450.5z"/>
	<path id="Path_5" class="st0" d="M1124.5,459.9c1.8,0,3.3,1.5,3.3,3.3s-1.5,3.3-3.3,3.3s-3.3-1.5-3.3-3.3
		S1122.6,459.9,1124.5,459.9L1124.5,459.9 M1124.5,458.3c-2.7,0-4.9,2.2-4.9,4.9c0,2.7,2.2,4.9,4.9,4.9s4.9-2.2,4.9-4.9
		S1127.2,458.3,1124.5,458.3z"/>
	<path id="Path_6" class="st0" d="M1169.4,459.9c1.8,0,3.3,1.5,3.3,3.3s-1.5,3.3-3.3,3.3s-3.3-1.5-3.3-3.3l0,0
		C1166,461.4,1167.5,459.9,1169.4,459.9 M1169.4,458.3c-2.7,0-4.9,2.2-4.9,4.9c0,2.7,2.2,4.9,4.9,4.9c2.7,0,4.9-2.2,4.9-4.9l0,0
		C1174.3,460.5,1172.2,458.3,1169.4,458.3C1169.4,458.3,1169.4,458.3,1169.4,458.3z"/>
	<path id="Path_7" class="st1" d="M1133.3,441.9c-0.3,0-0.5,0.2-0.5,0.5l0,0v6.5c0,0.3,0.2,0.5,0.5,0.5l0,0h14.2
		c0.3,0,0.5-0.2,0.5-0.5l0,0v-6.5c0-0.3-0.2-0.5-0.5-0.5l0,0H1133.3L1133.3,441.9z"/>
	<path id="Path_8" class="st1" d="M1150.2,441.9c-0.3,0-0.5,0.2-0.5,0.5l0,0v6.5c0,0.3,0.2,0.5,0.5,0.5l0,0h14.2
		c0.3,0,0.5-0.2,0.5-0.5l0,0v-6.5c0-0.3-0.2-0.5-0.5-0.5l0,0H1150.2L1150.2,441.9z"/>
	<path id="Path_9" class="st1" d="M1167.1,441.9c-0.3,0-0.6,0.2-0.6,0.5v6.5c0,0.3,0.3,0.5,0.6,0.5h12c0.3,0,0.6-0.2,0.6-0.5
		l-0.6-6.5c0-0.3-0.3-0.5-0.6-0.5H1167.1L1167.1,441.9z"/>
</g>
</svg>
