<?xml version="1.0" encoding="utf-8"?>
<!-- Generator: Adobe Illustrator 24.0.1, SVG Export Plug-In . SVG Version: 6.00 Build 0)  -->
<svg version="1.1" id="Layer_1" xmlns="http://www.w3.org/2000/svg" xmlns:xlink="http://www.w3.org/1999/xlink" x="0px" y="0px"
	 width="68.4px" height="34px" viewBox="0 0 68.4 34" style="enable-background:new 0 0 68.4 34;" xml:space="preserve">
<style type="text/css">
	.st0{fill:#FFFFFF;}
</style>
<g id="Group_21" transform="translate(-1118.746 -291.854)">
	<path id="XMLID_56_" class="st0" d="M1130.9,314.3c-3,0-5.5,2.5-5.5,5.5s2.5,5.5,5.5,5.5s5.5-2.5,5.5-5.5l0,0
		C1136.4,316.8,1133.9,314.3,1130.9,314.3z M1130.9,323.8c-2.1,0-3.9-1.7-3.9-3.9c0-2.1,1.7-3.9,3.9-3.9s3.9,1.7,3.9,3.9l0,0
		C1134.7,322,1133,323.7,1130.9,323.8z"/>
	<path id="XMLID_51_" class="st0" d="M1173.5,314.3c-3,0-5.5,2.5-5.5,5.5s2.5,5.5,5.5,5.5s5.5-2.5,5.5-5.5l0,0
		C1179,316.8,1176.5,314.3,1173.5,314.3z M1173.5,323.8c-2.1,0-3.9-1.7-3.9-3.9c0-2.1,1.7-3.9,3.9-3.9s3.9,1.7,3.9,3.9
		C1177.3,322,1175.6,323.8,1173.5,323.8z"/>
	<g id="XMLID_3_" transform="translate(1118.746 291.854)">
		<path id="XMLID_45_" class="st0" d="M67.7,20.3c-0.4-0.9-0.7-1.9-0.7-2.9c-0.1-1.1-0.4-1.2-1.9-1.5c-2.2-0.4-4.3-0.7-6.5-0.9
			c-1.1-0.2-2.3-0.3-3.4-0.4c-0.4,0-0.8,0-1.2,0.1c-2.2,0.2-30.1,2.7-30.5,2.7l0,0c-0.4,0-0.5-0.3-0.7-0.5c-0.3-0.3-0.4-0.5,0-0.7
			c1.4-1,2.9-1.9,4.4-2.8c1.2-0.5,2.4-0.9,3.6-1.3c0.2-0.1,0.3-0.3,0.3-0.5L31,10.8c-0.1-0.3-0.3-0.4-0.4-0.4h-0.1
			c-0.4,0.1-1.2,0.3-2.6,0.8C25.3,12,17,16.3,17,16.3s-4.3,0.4-6,0.7s-4.5,0.9-6.6,1.4C2.8,18.8,1.5,20,1,21.5
			c-0.1,0.6-0.3,1.2-0.6,1.8C0.1,23.7,0,23.4,0,23.8s0,3.3,0,4.4c0.5,1,1.3,1,2.1,1.1S6,29.5,6,29.5V28c0-3.4,2.7-6.1,6.1-6.1l0,0
			h0.1c3.4,0.1,6.1,2.9,6,6.2v2.2h30.3V28c0-3.4,2.7-6.1,6.1-6.1l0,0h0.1c3.4,0.1,6.1,2.9,6,6.2v1.2c0,0,3.9-0.8,5.3-1.1
			c1.7-0.4,1.9-0.5,2.2-1.3c0.2-1.3,0.2-2.7,0-4.1C68.2,20.9,68.1,20.9,67.7,20.3z M67.6,26.7c-0.1,0.4-0.1,0.4-0.2,0.4
			c-0.4,0.2-0.9,0.3-1.4,0.4c-1,0.2-3.2,0.6-4.4,0.9V28c0-3.8-3-6.9-6.8-7h-0.1c-3.8,0-6.9,3.1-6.9,6.9v1.6H19V28c0-3.8-3-6.9-6.8-7
			h-0.1c-1.8,0-3.6,0.7-4.9,2s-2,3-2,4.9v0.8c-1,0-2.5-0.1-3.1-0.2H2c-0.8,0-1.1-0.1-1.3-0.5v-4c0.1,0,0.2-0.1,0.3-0.3
			c0.2-0.4,0.4-0.8,0.4-1.2c0-0.3,0.1-0.5,0.2-0.8c0.5-1.3,1.6-2.2,2.9-2.5c2-0.5,4.8-1.1,6.6-1.4c1.6-0.3,5.9-0.7,6-0.7
			s0.2,0,0.3-0.1c0.1,0,8.3-4.3,10.6-5c1.1-0.4,1.7-0.5,2.2-0.7v0.2c-1.1,0.4-2.7,0.9-3.4,1.2c-1.3,0.7-2.5,1.5-3.8,2.3
			c-0.3,0.2-0.6,0.4-0.7,0.4c-0.3,0.1-0.5,0.4-0.5,0.7c0,0.4,0.1,0.7,0.3,1c0,0,0,0.1,0.1,0.1c0.2,0.4,0.7,0.7,1.2,0.7h0.1
			c0.1,0,28.3-2.5,30.5-2.7c0.4,0,0.8-0.1,1.1-0.1c0.7,0,1.4,0.1,2.1,0.2c0.4,0,0.8,0.1,1.2,0.2c2.2,0.2,4.3,0.5,6.4,0.9
			c0.4,0.1,0.8,0.2,1.1,0.4c0,0,0.1,0.1,0.2,0.6c0,1.1,0.3,2.3,0.9,3.3c0,0,0,0.1,0.1,0.1c0.1,0.1,0.2,0.3,0.2,0.4
			c0,0.3,0.1,0.7,0.2,1.6c0,0.2,0,0.5,0,0.7C67.7,24.7,67.7,25.7,67.6,26.7L67.6,26.7z"/>
	</g>
</g>
</svg>
