<?xml version="1.0" encoding="utf-8"?>
<!-- Generator: Adobe Illustrator 24.0.1, SVG Export Plug-In . SVG Version: 6.00 Build 0)  -->
<svg version="1.1" id="Layer_1" xmlns="http://www.w3.org/2000/svg" xmlns:xlink="http://www.w3.org/1999/xlink" x="0px" y="0px"
	 width="77.3px" height="34px" viewBox="0 0 77.3 34" style="enable-background:new 0 0 77.3 34;" xml:space="preserve">
<style type="text/css">
	.st0{fill:#FFFFFF;}
	.st1{opacity:0.5;fill:#FFFFFF;enable-background:new    ;}
</style>
<g id="Group_16" transform="translate(-1123.287 -168.703)">
	<path id="XMLID_63_" class="st0" d="M1133.7,191.5c-3.1,0-5.6,2.5-5.6,5.6s2.5,5.6,5.6,5.6s5.6-2.5,5.6-5.6l0,0
		C1139.3,194,1136.8,191.5,1133.7,191.5z M1133.7,200.9c-2.1,0-3.8-1.7-3.8-3.8s1.7-3.8,3.8-3.8c2.1,0,3.8,1.7,3.8,3.8l0,0
		C1137.5,199.2,1135.8,200.9,1133.7,200.9L1133.7,200.9z"/>
	<path id="XMLID_58_" class="st0" d="M1183.6,191.5c-3.1,0-5.6,2.5-5.6,5.6s2.5,5.6,5.6,5.6s5.6-2.5,5.6-5.6l0,0
		C1189.2,194,1186.7,191.5,1183.6,191.5z M1183.6,200.9c-2.1,0-3.8-1.7-3.8-3.8s1.7-3.8,3.8-3.8c2.1,0,3.8,1.7,3.8,3.8
		S1185.7,200.9,1183.6,200.9L1183.6,200.9z"/>
	<g id="XMLID_3_" transform="translate(1123.287 168.703)">
		<path id="XMLID_52_" class="st0" d="M76.3,21.1c-0.3-0.3-0.6-0.7-0.7-1.1c0,0-0.4-2.3-0.6-3.1c-0.1-1-1-1.7-2-1.7
			c-1.4,0-4.8-0.3-4.8-0.3s-11.4-2.9-17.1-4c-2.8-0.6-5.8-0.9-8.7-0.9c-1,0-1.9,0-2.9,0.1c-3.3,0.3-6.5,1.2-9.5,2.6
			c-3,1.5-6,3.1-8.8,4.8c0,0-5.5,0.5-8.2,0.8c-2.1,0.2-4.2,0.6-6.2,1.3c-1.4,0.4-2.8,1.2-4,2.1c-0.4,0.5-0.7,1.2-0.9,1.4
			c-0.4,0.3-0.8,0.6-1.2,0.9c-0.3,0.2-0.5,0.2-0.6,0.7c0,0.5-0.1,3.8,0,4.9s0.7,1.3,1.3,1.4s2.5,0.1,2.5,0.1v-2.7
			c-0.1-3.6,2.8-6.5,6.3-6.6c3.6-0.1,6.5,2.8,6.6,6.3c0,0.1,0,0.2,0,0.2v2.9h36.9v-2.9c-0.1-3.6,2.8-6.5,6.3-6.6s6.5,2.8,6.6,6.3
			c0,0.1,0,0.2,0,0.2v2.9c0,0,1.6,0,3.3-0.2c1.9-0.3,3.8-0.9,5.6-1.7c1.1-0.5,1.8-1.6,1.7-2.8c0-1.3,0-2.6-0.2-3.9
			C77.1,22.1,76.8,21.5,76.3,21.1z M76.6,26.6c0.1,0.9-0.5,1.8-1.3,2.1c-1.7,0.8-3.5,1.3-5.4,1.6c-0.9,0.1-1.8,0.1-2.4,0.2v-2.1
			c0-4-3.2-7.3-7.3-7.3S53,24.4,53,28.4v2.1H17.7v-2.1c0-4-3.2-7.3-7.3-7.3s-7.3,3.2-7.3,7.3v1.8c-0.6,0-1.3,0-1.7-0.1
			c-0.4,0-0.6,0-0.7-0.7c-0.1-0.9,0-3.8,0-4.7c0.1,0,0.1-0.1,0.2-0.1c1.1-0.7,1.3-0.9,1.4-1c0.1-0.2,0.3-0.4,0.4-0.6
			c0.1-0.3,0.3-0.6,0.5-0.8c1.1-0.8,2.3-1.4,3.7-1.8c2-0.6,4-1,6.1-1.2c2.6-0.3,8.1-0.8,8.2-0.8s0.2,0,0.3-0.1
			c2.8-1.7,5.7-3.3,8.7-4.8c2.9-1.4,6-2.2,9.2-2.5c0.9,0,1.8-0.1,2.8-0.1l0,0c2.9,0,5.8,0.3,8.6,0.9c5.5,1,16.8,3.9,17,3.9h0.1
			c0.1,0,3.5,0.3,4.9,0.3c0.9,0,1.1,0.4,1.3,1c0.1,0.9,0.6,3,0.6,3.1l0,0c0.1,0.6,0.5,1.2,1,1.6c0.3,0.2,0.6,0.6,0.6,1
			C76.5,23.4,76.7,25.2,76.6,26.6L76.6,26.6z"/>
		<path id="XMLID_51_" class="st1" d="M55.9,13.6c-0.9-0.2-5.6-1.2-8.1-1.6c-2.9-0.4-5.8-0.5-8.6-0.2C37,12,35,12.5,33,13.4
			c-2.3,0.8-9.3,4.8-9.3,4.8s28.7-1.7,29.9-1.9c1.1-0.3,2-0.9,2.8-1.8C56.7,14,56.9,13.8,55.9,13.6z"/>
	</g>
</g>
</svg>
