<?xml version="1.0" encoding="utf-8"?>
<!-- Generator: Adobe Illustrator 24.0.1, SVG Export Plug-In . SVG Version: 6.00 Build 0)  -->
<svg version="1.1" id="Layer_1" xmlns="http://www.w3.org/2000/svg" xmlns:xlink="http://www.w3.org/1999/xlink" x="0px" y="0px"
	 width="61px" height="34px" viewBox="0 0 61 34" style="enable-background:new 0 0 61 34;" xml:space="preserve">
<style type="text/css">
	.st0{fill:#FFFFFF;}
	.st1{opacity:0.5;fill:#FFFFFF;enable-background:new    ;}
</style>
<g id="Group_22" transform="translate(-1123.287 -234.478)">
	<path id="XMLID_55_" class="st0" d="M1134.9,257.8c-2.8,0-5,2.2-5,5s2.2,5,5,5s5-2.2,5-5l0,0C1139.9,260,1137.7,257.8,1134.9,257.8
		z M1134.9,266.2c-1.9,0-3.4-1.5-3.4-3.4s1.5-3.4,3.4-3.4s3.4,1.5,3.4,3.4l0,0C1138.3,264.7,1136.8,266.2,1134.9,266.2z"/>
	<path id="XMLID_50_" class="st0" d="M1175,257.8c-2.8,0-5,2.2-5,5s2.2,5,5,5s5-2.2,5-5l0,0C1180,260,1177.7,257.8,1175,257.8z
		 M1175,266.2c-1.9,0-3.4-1.5-3.4-3.4s1.5-3.4,3.4-3.4s3.4,1.5,3.4,3.4l0,0C1178.3,264.7,1176.8,266.2,1175,266.2z"/>
	<g id="XMLID_3_" transform="translate(1123.287 234.478)">
		<path id="XMLID_46_" class="st0" d="M60.2,21.5c0-0.6,0.1-1.7-0.3-2.3c-1.7-1.8-3.5-3.5-5.5-5c-0.5-0.3-0.8-0.5-5.4-1.1
			c-3.2-0.3-6.4-0.5-9.6-0.4v0.7c3.2,0,6.4,0.1,9.6,0.4c4.4,0.6,4.7,0.7,5.1,1c1.9,1.5,3.7,3.2,5.4,4.9c0.3,0.3,0.2,1.2,0.2,1.6v0.1
			c0,1,0.3,2,0.8,2.8c0.2,1,0.3,1.9,0.2,2.9v0.2c0,0.2,0,0.3-0.1,0.4s-0.1,0.2-0.2,0.3c-0.1,0.2-0.2,0.3-0.6,0.4
			c-0.4,0.1-1,0.3-1.5,0.4v-0.7c0-3.5-2.9-6.4-6.4-6.4s-6.4,2.9-6.4,6.4v1.2L18,29.9v-1.5c0-3.5-2.9-6.4-6.4-6.4s-6.4,2.9-6.4,6.4
			v1.2c-0.9-0.1-2.2-0.2-2.7-0.3c-0.4,0-0.7-0.1-1.1-0.2l0,0c0,0-0.1,0-0.2-0.1c-0.1-0.3-0.4-1.7-0.5-2.1c0-0.1,0.2-0.3,0.3-0.4
			s0.2-0.3,0.3-0.5c0.2-0.6,0.4-1.2,0.5-1.9C1.9,23.7,2,23.3,2.1,23c0.4-0.7,1.1-1.2,1.9-1.4c0.2-0.1,0.4-0.1,0.6-0.1
			c1.3-0.3,4.3-1.1,5.7-1.3c0.5,0,1.2-0.2,2-0.3c1.9-0.3,4.4-0.6,5.3-0.6h0.2l0.2-0.1c2.2-1.3,7.9-4.1,8.7-4.5
			c0.2-0.1,0.4-0.2,0.6-0.3c0.9-0.4,1.8-0.7,2.8-0.7c2.3-0.3,3.7-0.4,5.1-0.4s2.8,0,4.2,0v-0.6c-2,0-3.7,0-4.2,0
			c-1.8,0-3.5,0.2-5.2,0.4c-1.2,0.1-2.4,0.5-3.5,1c-0.9,0.3-6.6,3.2-8.8,4.5c-1.3,0-5.6,0.7-7.3,0.9c-1.7,0.2-5.7,1.3-6.4,1.4
			c-1.1,0.2-2,0.9-2.4,1.9C1.1,23.5,1,25,0.7,25.7C0.5,26-0.1,26.5,0,26.9s0.5,2.1,0.6,2.4s0.3,0.3,0.6,0.5C1.6,29.9,2,30,2.4,30.1
			c0.7,0.1,3.5,0.3,3.5,0.3v-2c0-3.1,2.5-5.6,5.6-5.6s5.6,2.5,5.6,5.6v2.2L46,30.3v-1.9c0-3.1,2.5-5.6,5.6-5.6s5.6,2.5,5.6,5.6V30
			c0.8-0.2,1.7-0.4,2.5-0.7c0.5-0.1,0.9-0.5,1.1-1c0.2-0.3,0.3-0.6,0.2-0.9c0-0.3,0.1-3.1-0.3-3.6C60.4,23.1,60.2,22.3,60.2,21.5z"
			/>
		<path id="XMLID_45_" class="st1" d="M49.1,16.4c-0.8-0.7-1.6-1.3-2.4-1.8c-0.9-0.6-2-0.5-3.4-0.6c-1.8,0-4.1-0.2-6.9-0.1
			c-2,0.1-4.2,0.2-5.4,0.3c-1.2,0.1-2.3,0.4-3.4,0.9c-0.9,0.4-4.8,2.3-5.5,2.7s-0.4,0.6-0.2,1c0,0,0.3,0.7,0.7,0.7
			c3.9-0.2,21.1-0.9,24.8-1c1,0,1-0.1,2-0.9C50.2,17.2,49.7,16.8,49.1,16.4z"/>
	</g>
</g>
</svg>
