<?xml version="1.0" encoding="utf-8"?>
<!-- Generator: Adobe Illustrator 24.0.1, SVG Export Plug-In . SVG Version: 6.00 Build 0)  -->
<svg version="1.1" id="Layer_1" xmlns="http://www.w3.org/2000/svg" xmlns:xlink="http://www.w3.org/1999/xlink" x="0px" y="0px"
	 width="46.6px" height="34px" viewBox="0 0 46.6 34" style="enable-background:new 0 0 46.6 34;" xml:space="preserve">
<style type="text/css">
	.st0{fill:#FFFFFF;}
	.st1{opacity:0.5;fill:#FFFFFF;enable-background:new    ;}
</style>
<g id="Group_26" transform="translate(-894 -457)">
	<g id="XMLID_45_" transform="translate(896.593 472.125)">
		<g id="XMLID_51_" transform="translate(0 0)">
			<path id="XMLID_52_" class="st0" d="M5.1,8.3C2.3,8.3,0,10.6,0,13.4s2.3,5.1,5.1,5.1s5.1-2.3,5.1-5.1C10.3,10.6,8,8.3,5.1,8.3z
				 M5.1,16.8c-1.9,0-3.4-1.5-3.4-3.4S3.2,10,5.1,10s3.4,1.5,3.4,3.4S7,16.8,5.1,16.8z"/>
		</g>
		<g id="XMLID_46_" transform="translate(31.451 0)">
			<path id="XMLID_47_" class="st0" d="M5.1,8.3C2.3,8.3,0,10.6,0,13.4s2.3,5.1,5.1,5.1s5.1-2.3,5.1-5.1S8,8.3,5.1,8.3
				C5.2,8.3,5.2,8.3,5.1,8.3z M5.1,16.8c-1.9,0-3.4-1.5-3.4-3.4S3.2,10,5.1,10s3.4,1.5,3.4,3.4S7,16.8,5.1,16.8z"/>
		</g>
	</g>
	<g id="XMLID_2_" transform="translate(894 457)">
		<g id="XMLID_3_">
			<path id="XMLID_41_" class="st0" d="M45.1,20.7c-0.3-0.2-0.4-0.1-0.5-0.7c-0.5-3.4-1.4-6.6-2.6-9.8c-0.3-1-0.9-1.4-2.9-1.7
				c-2.4-0.2-4.8-0.3-7.2-0.2c-4.4,0-9.1,0.1-9.7,0.2c-1,0.1-1.9,0.4-2.7,0.9C18.7,10,10,16,10,16s-5.9,1.2-6.7,1.5
				c-1,0.3-1.6,1.1-1.7,2.1c0,0.7-0.1,1.3-0.3,1.9c-0.3,0.6-1,1.2-1.1,1.8S0,27.7,0,28.3s0.2,1.1,0.5,1.1c0.5,0.1,0.9,0.2,1.4,0.2
				v-1.1c0-3.2,2.6-5.8,5.8-5.8s5.8,2.6,5.8,5.8v1.4h19.8v-1.4c0-3.2,2.6-5.8,5.8-5.8s5.8,2.6,5.8,5.8l0,0c0,0,1.1-0.1,1.3-0.1
				c0.1,0,0.2-0.3,0.3-1.7c0-1.5-0.2-3-0.4-4.5C46.1,21.5,45.7,21,45.1,20.7z M45.8,26.6c0,0.5,0,0.8,0,1l0,0
				c-0.5-3.6-3.8-6.2-7.4-5.7c-3.3,0.4-5.8,3.2-5.8,6.6v0.7H14.3v-0.7c0-3.7-3-6.6-6.6-6.6s-6.6,3-6.6,6.6v0.2c-0.1,0-0.2,0-0.3,0
				c0-0.1-0.1-0.3,0-0.4c0-1,0.1-4.4,0.2-4.8c0.1-0.3,0.3-0.5,0.5-0.8c0.2-0.2,0.4-0.5,0.6-0.8c0.3-0.7,0.5-1.5,0.4-2.3l0,0
				C2.6,19,3,18.4,3.7,18.3c0.6-0.2,4.3-1,6.6-1.5c0.1,0,0.2-0.1,0.3-0.1s8.6-6.1,9.5-6.6c0.7-0.4,1.4-0.6,2.2-0.7
				c0.1,0,0.1,0,0.2,0c0.5-0.1,5-0.2,9.6-0.2l0,0c3.5,0,6,0.1,7.1,0.2c0.6,0,1.2,0.2,1.8,0.4c0.2,0.2,0.4,0.4,0.5,0.7
				c0,0.3,0.2,0.6,0.3,1.1c1.1,2.8,1.8,5.7,2.2,8.6c0,0.5,0.3,1,0.7,1.2l0,0l0,0c0,0,0.1,0.1,0.2,0.1c0.3,0.2,0.6,0.4,0.6,0.8
				c0,0.1,0,0.3,0,0.5C45.7,24,45.8,25.3,45.8,26.6L45.8,26.6z"/>
			<path id="XMLID_40_" class="st1" d="M31.9,9.9c-3-0.2-6.1-0.2-9.1,0c-1,0.1-1.9,0.4-2.7,1c-0.6,0.4-5.5,3.8-6,4.3
				c-0.4,0.3-0.1,0.8,0,1.2c0.1,0.3,0.4,0.6,1.3,0.6c0.6,0,20.3-1.4,20.3-1.4s-1.6-3.7-2-4.3C33.4,10.5,32.7,10,31.9,9.9z"/>
		</g>
	</g>
</g>
</svg>
