<?xml version="1.0" encoding="utf-8"?>
<!-- Generator: Adobe Illustrator 24.0.1, SVG Export Plug-In . SVG Version: 6.00 Build 0)  -->
<svg version="1.1" id="Group_14" xmlns="http://www.w3.org/2000/svg" xmlns:xlink="http://www.w3.org/1999/xlink" x="0px" y="0px"
	 width="80px" height="34px" viewBox="0 0 80 34" style="enable-background:new 0 0 80 34;" xml:space="preserve">
<style type="text/css">
	.st0{fill:#FFFFFF;}
	.st1{opacity:0.5;fill:#FFFFFF;enable-background:new    ;}
</style>
<path id="XMLID_66_" class="st0" d="M55.4,30.7H18.5v-3c0-3.4-2.8-6.2-6.2-6.2s-6.2,2.8-6.2,6.2v2.4H5.6C4,30,2.4,29.7,0.8,29.2
	c-0.3-0.2-0.5-0.5-0.6-0.8c-0.3-1.1-0.4-2.2-0.1-3.3c0.1-0.2,0.3-0.4,0.5-0.5c0.1-0.1,0.2-0.2,0.3-0.3C0.9,24,1,23.7,1,23.4
	c0.1-0.8,0.2-1.7,0.4-2.5s0.9-1.5,1.7-1.7l0,0c5.8-1.8,11.7-2.9,17.7-3.3c2.8-0.2,3.6-0.5,4.5-1.1c0.6-0.3,1.3-0.7,2.1-1.1
	c2.1-1.2,4.5-2.5,6.1-3.2C36.2,9.5,39,9,41.7,9c4-0.3,8-0.2,11.9,0.2c4.5,0.6,5.3,1,7.8,2.1l0.4,0.1c1,0.4,6.2,2.8,6.8,3.1
	c0.8,0,6.3,0.4,6.9,0.4c1,0.1,1.7,1,2,2.7c0.1,0.6,0.2,1.2,0.3,1.8c0.1,0.8,0.3,1.7,0.6,2.4c0.2,0.3,0.4,0.6,0.7,0.8
	c0.2,0.1,0.4,0.3,0.5,0.5c0.3,1.4,0.3,2.9,0,4.3c-0.4,0.9-1.7,1.1-3,1.4l0,0l-8.9,0.7v-1.8c0-3.4-2.8-6.2-6.2-6.2
	c-3.4,0-6.2,2.8-6.2,6.2l0,0L55.4,30.7L55.4,30.7z M19.4,29.8h35.1v-2.2c0-3.9,3.2-7.1,7.1-7.1s7.1,3.2,7.1,7.1v0.9l7.8-0.6
	c1-0.2,2.1-0.5,2.4-1c0.2-1.2,0.2-2.3,0-3.5c-0.1-0.1-0.1-0.1-0.2-0.2c-0.4-0.3-0.7-0.6-1-1.1c-0.4-0.9-0.6-1.8-0.7-2.7
	c-0.1-0.6-0.2-1.1-0.3-1.7c-0.3-1.3-0.7-2-1.2-2c-0.6,0-6.9-0.4-7-0.4h-0.1h-0.1c0,0-5.9-2.7-6.9-3.1L61.1,12c-2.4-1.1-5-1.8-7.6-2
	c-3.9-0.4-7.8-0.5-11.7-0.2l0,0c-2.6,0.1-5.3,0.5-7.8,1.4c-1.6,0.7-4,2.1-6,3.2c-0.8,0.5-1.5,0.8-2.1,1.2c-1.1,0.6-2.1,0.9-4.9,1.1
	C15,17.2,9.1,18.3,3.4,20l0,0c-0.6,0.1-1,0.5-1.1,1.1c-0.2,0.8-0.3,1.6-0.4,2.3c0,0.4-0.1,0.8-0.2,1.1c-0.1,0.3-0.3,0.5-0.6,0.7
	c0,0.1-0.1,0.1-0.1,0.2c-0.1,1,0,2,0.3,2.9c1.3,0.4,2.6,0.7,4,0.7v-1.5c0-3.9,3.2-7.1,7.1-7.1s7.1,3.2,7.1,7.1L19.4,29.8L19.4,29.8z
	"/>
<path id="XMLID_63_" class="st0" d="M12.3,33.2c-3.1,0-5.6-2.5-5.6-5.6S9.2,22,12.3,22s5.6,2.5,5.6,5.6S15.4,33.2,12.3,33.2
	L12.3,33.2z M12.3,23.8c-2.1,0-3.7,1.7-3.7,3.7c0,2.1,1.7,3.7,3.7,3.7c2.1,0,3.7-1.7,3.7-3.7l0,0C16,25.5,14.3,23.8,12.3,23.8
	L12.3,23.8z"/>
<path id="XMLID_60_" class="st0" d="M61.5,33.2c-3.1,0-5.6-2.5-5.6-5.6s2.5-5.6,5.6-5.6s5.6,2.5,5.6,5.6S64.6,33.2,61.5,33.2
	L61.5,33.2z M61.5,23.8c-2.1,0-3.7,1.7-3.7,3.7c0,2.1,1.7,3.7,3.7,3.7c2.1,0,3.7-1.7,3.7-3.7S63.5,23.8,61.5,23.8L61.5,23.8z"/>
<path id="XMLID_59_" class="st1" d="M27.9,15.2c2.3-1.3,4.6-2.5,7.1-3.6c1.9-0.7,4-1,6-1.1c2.5-0.2,3.9-0.2,5.7-0.2
	c2.3,0,4.7,0.2,7,0.8c1.3,0.4,2.5,0.9,3.7,1.4c1.5,0.6,3,1.4,4.3,2.4c0.3,0.2,0.5,0.7-0.1,0.7c-6,0.2-32,0.8-32.6,0.9
	c-0.7,0-0.7-0.3-1-0.6C27.7,15.6,27.9,15.2,27.9,15.2z"/>
</svg>
