<?xml version="1.0" encoding="utf-8"?>
<!-- Generator: Adobe Illustrator 24.0.1, SVG Export Plug-In . SVG Version: 6.00 Build 0)  -->
<svg version="1.1" id="Layer_1" xmlns="http://www.w3.org/2000/svg" xmlns:xlink="http://www.w3.org/1999/xlink" x="0px" y="0px"
	 width="75.8px" height="34px" viewBox="0 0 75.8 34" style="enable-background:new 0 0 75.8 34;" xml:space="preserve">
<style type="text/css">
	.st0{fill:#FFFFFF;}
	.st1{opacity:0.498;fill:#FFFFFF;enable-background:new    ;}
</style>
<g id="Group_20" transform="translate(-979.704 -288.449)">
	<path id="XMLID_67_" class="st0" d="M992.2,310.5c-3.2,0-5.8,2.6-5.8,5.8s2.6,5.8,5.8,5.8s5.8-2.6,5.8-5.8l0,0
		C998,313.1,995.4,310.5,992.2,310.5z M992.2,320.1c-2.1,0-3.8-1.7-3.8-3.8s1.7-3.8,3.8-3.8s3.8,1.7,3.8,3.8
		S994.3,320.1,992.2,320.1L992.2,320.1z"/>
	<path id="XMLID_62_" class="st0" d="M1040.1,310.5c-3.2,0-5.8,2.6-5.8,5.8s2.6,5.8,5.8,5.8s5.8-2.6,5.8-5.8
		S1043.3,310.5,1040.1,310.5z M1040.1,320.1c-2.1,0-3.8-1.7-3.8-3.8s1.7-3.8,3.8-3.8s3.8,1.7,3.8,3.8S1042.2,320.1,1040.1,320.1
		L1040.1,320.1z"/>
	<g id="XMLID_4_" transform="translate(979.704 288.449)">
		<path id="XMLID_56_" class="st0" d="M75.7,21.7c0-0.3-0.2-0.7-0.6-0.8c-0.4-0.2-0.4-0.4-0.4-0.9v-3.5c0-0.8-0.2-1.5-0.7-2.1
			c-0.4-0.7-4.2-6.3-4.4-6.7c-0.5-0.8-1.4-1.1-3.6-1.1c-1.3-0.1-6.6-0.1-11.8-0.1c-3.9,0-7.6,0-9.5,0.1c-4.2,0.2-6.9,0.3-9.2,0.6
			c-1.5,0.2-2.9,0.5-4.3,0.9c-1.2,0.5-9.9,5.8-10.8,6.3c-1.4,0-7.7,0.7-9.3,0.9S3,17,2.5,17.1c-0.5,0.3-1,0.7-1.2,1.3
			c0,0.3-0.7,3.8-0.7,4.2c-0.1,0.3-0.2,0.5-0.5,0.6C0.1,23.4,0,23.7,0,24s0.1,3.1,0.2,3.6s0,0.8,0.6,0.9c0.5,0.1,4.7,0.7,4.7,0.7v-2
			c0-3.9,3.2-7.1,7.1-7.1s7.1,3.2,7.1,7.1v2l33.8-0.5V27c0-3.9,3.2-7.1,7.1-7.1s7.1,3.2,7.1,7.1v1.6c0,0,5.3-0.7,6.1-0.9
			c0.4-0.1,0.8-0.3,1.1-0.6c0.3-0.3,1-1.1,1-1.5C75.7,25.1,75.8,22.3,75.7,21.7z M75,24.1v1.4c-0.2,0.4-0.5,0.7-0.8,1h-0.1
			c-0.3,0.3-0.3,0.3-0.8,0.4c-0.4,0.1-3.1,0.5-5.2,0.8V27c0-4.3-3.5-7.8-7.8-7.8s-7.8,3.5-7.8,7.8l0,0v1.1l-32.4,0.5v-1.3
			c0-4.3-3.5-7.8-7.8-7.8S4.5,23,4.5,27.3v1.2C2.9,28.3,1,28,0.7,27.9l0,0c0-0.1,0-0.1,0-0.2s0-0.1,0-0.2c0-0.3-0.1-1.8-0.2-2.6
			c0-0.6,0-0.8,0-1c0-0.1,0-0.2,0-0.3c0.4-0.2,0.7-0.6,0.7-1.1c0-0.3,0.6-3.6,0.7-4.1c0.2-0.3,0.5-0.6,0.8-0.8
			c0.5-0.2,6.8-1.5,8.4-1.8c1.5-0.3,7.8-0.9,9.2-0.9c0.1,0,0.2,0,0.3-0.1c0.3-0.2,1.1-0.7,2.3-1.4c2.9-1.4,7.8-4.4,8.7-4.7
			c1.4-0.4,2.7-0.8,4.2-0.9c2.1-0.3,4.8-0.5,9.2-0.6c1.7,0,5-0.1,9.5-0.1c5,0,10.4,0,11.7,0.1c2.2,0.1,2.7,0.3,3,0.8
			c0.1,0.2,0.9,1.5,2.3,3.5c0.9,1.4,1.9,2.9,2.1,3.2c0.1,0.1,0.1,0.2,0.2,0.3c0.3,0.4,0.5,1,0.4,1.5c0,1.1,0,3,0,3.5
			c-0.1,0.6,0.2,1.3,0.8,1.6l0,0c0.1,0,0.2,0.1,0.2,0.3C75,22.1,75,23.2,75,24.1z"/>
		<path id="XMLID_55_" class="st1" d="M61.9,7.9c-1.4,0-22.6,0-23.1,0S37,8.1,35.2,8.3c-1.6,0.2-3.1,0.7-4.4,1.4
			C30,10.2,25.6,13,25,13.6c-0.6,0.5-0.1,0.8,0.2,1.1c0.6,0.6,1.2,0.5,2.4,0.5c1.1,0,40.4-2,40.4-2s-2.6-3.3-3.6-4.3
			C63.3,7.9,63.3,8,61.9,7.9z"/>
	</g>
</g>
</svg>
