<?xml version="1.0" encoding="utf-8"?>
<!-- Generator: Adobe Illustrator 24.0.1, SVG Export Plug-In . SVG Version: 6.00 Build 0)  -->
<svg version="1.1" id="Layer_1" xmlns="http://www.w3.org/2000/svg" xmlns:xlink="http://www.w3.org/1999/xlink" x="0px" y="0px"
	 width="75.4px" height="34px" viewBox="0 0 75.4 34" style="enable-background:new 0 0 75.4 34;" xml:space="preserve">
<style type="text/css">
	.st0{fill:#FFFFFF;}
	.st1{opacity:0.5;fill:#FFFFFF;enable-background:new    ;}
</style>
<g id="Group_18" transform="translate(-1101.721 -336.405)">
	<path id="XMLID_50_" class="st0" d="M1118.5,369.9c-3.4,0-6.2-2.7-6.2-6.1c0-3.4,2.8-6.1,6.2-6.1s6.2,2.7,6.2,6.1
		C1124.7,367.2,1121.9,369.9,1118.5,369.9z M1118.5,359.9c-2.2,0-4,1.8-4,3.9s1.8,3.9,4,3.9s4-1.8,4-3.9l0,0
		C1122.5,361.7,1120.7,359.9,1118.5,359.9L1118.5,359.9z"/>
	<path id="XMLID_45_" class="st0" d="M1152.1,369.9c-3.4,0-6.2-2.7-6.2-6.1c0-3.4,2.8-6.1,6.2-6.1c3.4,0,6.2,2.7,6.2,6.1
		C1158.3,367.2,1155.5,369.9,1152.1,369.9z M1152.1,359.9c-2.2,0-4,1.8-4,3.9s1.8,3.9,4,3.9s4-1.8,4-3.9l0,0
		C1156.1,361.7,1154.3,359.9,1152.1,359.9L1152.1,359.9z"/>
	<path id="XMLID_40_" class="st0" d="M1168,369.9c-3.4,0-6.2-2.7-6.2-6.1c0-3.4,2.8-6.1,6.2-6.1c3.4,0,6.2,2.7,6.2,6.1
		C1174.2,367.2,1171.4,369.9,1168,369.9z M1168,359.9c-2.2,0-4,1.8-4,3.9s1.8,3.9,4,3.9c2.2,0,4-1.8,4-3.9l0,0
		C1172,361.7,1170.2,359.9,1168,359.9L1168,359.9z"/>
	<g id="XMLID_24_" transform="translate(1101.721 336.405)">
		<path id="XMLID_32_" class="st1" d="M6.1,10.4c0,0,1.6-4.4,1.8-4.8c0.1-0.4,0.2-0.8,1-0.8h7.2v5.6H6.1z"/>
		<g id="XMLID_26_">
			<path id="XMLID_31_" class="st0" d="M44.3,24.7h-1.2c-0.4,0-0.7,0.3-0.7,0.7v1H27.2v0c0-0.2-0.1-0.4-0.2-0.5
				c-0.1-0.1-0.3-0.2-0.5-0.2h-1.9c-1-4.3-5.3-6.9-9.7-5.9c-3,0.7-5.3,3-6,6h-7c-0.2-0.6-0.3-1.1-0.4-1.7c0-0.2-0.1-0.3-0.1-0.5
				c0.5,0,1.2,0,1.2,0c0.2,0,0.4-0.1,0.6-0.2c0.1-0.2,0.2-0.4,0.2-0.6c0-0.1-1-7.5-0.2-10.5c0.1-0.4,0.7-0.5,0.7-0.5
				c0.3,0,0.5-0.2,0.6-0.5C5.6,8.1,7.5,3,7.7,2.6C7.8,2.3,8.1,2.1,8.4,2c0.8-0.3,1.6-0.5,2.5-0.5c2.7-0.1,6.9-0.2,7.9-0.2
				c0.3,0,0.5,0.1,0.8,0.2c0.2,0.2,0.3,0.5,0.3,0.7c0,0.9,0,10.8,0,15.9c0,0.3,0.1,0.5,0.4,0.6c0,0,3.6,1.2,4.2,3.4
				c0.1,0.3,0.4,0.5,0.7,0.5h20.7c0.3-0.3,0.6-0.5,0.9-0.7H25.1c-0.7-2.5-4.6-3.8-4.6-3.8s0.1-14.8,0-15.9c0-0.9-0.7-1.6-1.6-1.6
				c-0.1,0-0.1,0-0.2,0c-1,0-5.2,0.1-8,0.2S7.3,1.7,7,2.3C6.7,2.9,3.6,11,3.6,11C3,11,2.5,11.5,2.3,12c-0.7,3.3,0.3,10.8,0.3,10.8
				s-0.9,0-1.4,0c-0.6,0-0.7,0.3-0.5,0.9c0.1,0.5,0.4,2.7,0.9,2.7h8c0.6-3.9,4.3-6.7,8.3-6.1c3.2,0.4,5.7,2.9,6.2,6h2.5v0.8h16.6
				v-1.7h1C44.1,25.2,44.2,25,44.3,24.7z"/>
			<g id="XMLID_27_" transform="translate(54.219 22.159)">
				<path id="XMLID_30_" class="st0" d="M8.5-0.2h-8.7C0.1,0,0.4,0.2,0.7,0.5h6.9C7.8,0.2,8.1,0,8.5-0.2z"/>
				<path id="XMLID_29_" class="st0" d="M6,2.6H2.2C2.3,2.8,2.4,3,2.5,3.3h3.2C5.8,3,5.9,2.8,6,2.6z"/>
				<path id="XMLID_28_" class="st0" d="M15.6-0.2C16,0,16.3,0.2,16.6,0.5h3.3v2.1h-1.8c0.1,0.2,0.2,0.5,0.3,0.7h2.2v-3.6
					C20.6-0.2,18.7-0.2,15.6-0.2z"/>
			</g>
		</g>
		<path id="XMLID_25_" class="st0" d="M62.7,19h-9.3c-0.2,0-0.4,0.1-0.4,0.3c0,0.2,0.1,0.4,0.4,0.4c0,0,0,0,0,0h4.3v1
			c0,0.2,0.1,0.4,0.4,0.4c0.2,0,0.4-0.1,0.4-0.3c0,0,0,0,0,0v-1h4.3c0.2,0,0.4-0.2,0.4-0.4C63,19.2,62.9,19,62.7,19z"/>
	</g>
</g>
</svg>
