<?xml version="1.0" encoding="utf-8"?>
<!-- Generator: Adobe Illustrator 24.0.1, SVG Export Plug-In . SVG Version: 6.00 Build 0)  -->
<svg version="1.1" id="Layer_1" xmlns="http://www.w3.org/2000/svg" xmlns:xlink="http://www.w3.org/1999/xlink" x="0px" y="0px"
	 width="83.8px" height="34px" viewBox="0 0 83.8 34" style="enable-background:new 0 0 83.8 34;" xml:space="preserve">
<style type="text/css">
	.st0{fill:#FFFFFF;}
	.st1{opacity:0.5;}
</style>
<g id="Group_19" transform="translate(-976.692 -352.579)">
	<path id="XMLID_119_" class="st0" d="M990.1,386.2c-3.2,0-5.7-2.6-5.7-5.7s2.6-5.7,5.7-5.7s5.7,2.6,5.7,5.7
		C995.8,383.7,993.3,386.2,990.1,386.2z M990.1,376.7c-2.1,0-3.8,1.7-3.8,3.8s1.7,3.8,3.8,3.8s3.8-1.7,3.8-3.8
		C993.9,378.4,992.2,376.7,990.1,376.7L990.1,376.7z"/>
	<path id="XMLID_114_" class="st0" d="M1043.6,386.2c-3.2,0-5.7-2.6-5.7-5.7s2.6-5.7,5.7-5.7s5.7,2.6,5.7,5.7l0,0
		C1049.3,383.7,1046.7,386.2,1043.6,386.2z M1043.6,376.7c-2.1,0-3.8,1.7-3.8,3.8s1.7,3.8,3.8,3.8c2.1,0,3.8-1.7,3.8-3.8
		C1047.4,378.4,1045.7,376.7,1043.6,376.7L1043.6,376.7z"/>
	<g id="XMLID_56_" transform="translate(976.692 352.579)">
		<path id="XMLID_60_" class="st0" d="M19.5,30.1v-2.5c0-3.4-2.6-6.1-6-6.2c-3.4,0-6.1,2.6-6.2,6c0,0.1,0,0.1,0,0.2v2.5h-2
			C4.1,30,3,29.8,1.8,29.5c-0.7-0.2-1.2-1.2-1.4-1.9c-0.1-0.4-0.1-1.2-0.2-2c0-0.5-0.1-0.9-0.2-1.4c0-0.5,0-1,0.2-1.5
			c0-0.2,0.1-0.3,0.1-0.5c0.1-0.7,1.3-4.4,1.5-4.9c0.4-0.9,1.2-1.6,2.1-2H4c3.3-1.4,6.7-2.4,10.2-3c0.5-0.2,1.8-1.2,3.4-2.2
			c2.8-2,6.7-4.6,8.3-5.4c1.8-0.9,3.8-1.5,5.8-1.8C37.3,2.5,43,2.3,48.6,2.3c3.5,0,24,0.5,26.4,0.6c2.6,0.1,5.9,6,6.5,8.9
			c0.6,2.7,1,5.4,1.2,8.2c-0.1,0.6,0.1,1.2,0.5,1.7c0.4,0.3,0.4,0.7,0.5,1.7c0,0.3,0,0.6,0,1v0.2c0,1.5,0.1,2.9-1.7,3.5
			c-1.6,0.5-8.4,1.1-8.7,1.2h-0.4v-1.7c0-3.4-2.6-6.1-6-6.2c-3.4,0-6.1,2.6-6.2,6c0,0.1,0,0.1,0,0.2v1.9h-0.4L19.5,30.1z M48.4,3.1
			c-5.8,0-13.7,0.3-16.6,0.7C29.9,4,28,4.6,26.3,5.5c-1.6,0.8-5.4,3.4-8.2,5.3c-1.8,1.2-3,2.1-3.4,2.3l0,0l0,0
			c-3.5,0.6-6.9,1.6-10.1,3l-0.2,0.1c-0.7,0.3-1.3,0.9-1.6,1.5c-0.2,0.5-1.3,4.2-1.5,4.8C1,22.7,1,22.9,0.9,23
			c-0.1,0.4-0.2,0.7-0.2,1.1c0,0.2,0.1,0.8,0.2,1.4c0.1,0.7,0.2,1.6,0.2,1.9c0.1,0.5,0.4,1,0.8,1.3c0.5,0.1,2.8,0.5,3.3,0.6h1.3
			v-1.7c0-3.8,3.1-6.9,6.9-6.9s6.9,3.1,6.9,6.9v1.7L60,28.8v-1.1c0-3.8,3.1-6.9,6.9-6.9s6.9,3.1,6.9,6.9v0.9
			c2.7-0.2,5.4-0.6,8.1-1.1c1.2-0.4,1.3-1.1,1.2-2.7v-0.2c0-0.3,0-0.6,0-1s0-0.7-0.1-1.1c-0.6-0.6-0.9-1.5-0.8-2.4
			c-0.2-2.7-0.6-5.4-1.2-8c-0.8-3-4-8.4-6-8.4c-2.3-0.1-23-0.5-26.4-0.6H48.4z"/>
		<g id="XMLID_57_" transform="translate(19.31 2.113)" class="st1">
			<path id="XMLID_59_" class="st0" d="M3,12.9c-0.5,0-1.1,0.1-1.5-0.3c-0.5-0.4-0.9-0.9-1.3-1.4c-0.2-0.1-0.4-0.5,0.2-1
				C1,9.8,6.6,5.9,7.5,5.3c1.5-0.9,3.1-1.6,4.8-2.1C13.6,3,16,2.7,16.8,2.7c0.9-0.1,1,0.1,0.9,0.6s-0.4,8.6-0.4,8.6L3,12.9z"/>
			<path id="XMLID_58_" class="st0" d="M22,11.7c0,0-0.4-8.3-0.4-8.6c0-0.4,0-0.7,0.6-0.7s15.2,0,17.2,0S51.1,3,52.3,3
				c0.9-0.1,1.9,0.3,2.5,1c0.4,0.7,1.3,2.3,1.6,3.1S56.3,8.4,55.6,9s-2,1.7-2,1.7L22,11.7z"/>
		</g>
	</g>
</g>
</svg>
