<?xml version="1.0" encoding="utf-8"?>
<!-- Generator: Adobe Illustrator 24.0.1, SVG Export Plug-In . SVG Version: 6.00 Build 0)  -->
<svg version="1.1" id="Layer_1" xmlns="http://www.w3.org/2000/svg" xmlns:xlink="http://www.w3.org/1999/xlink" x="0px" y="0px"
	 width="65.5px" height="34px" viewBox="0 0 65.5 34" style="enable-background:new 0 0 65.5 34;" xml:space="preserve">
<style type="text/css">
	.st0{fill:#FFFFFF;}
	.st1{opacity:0.5;fill:#FFFFFF;enable-background:new    ;}
</style>
<g id="Group_23" transform="translate(-986.071 -231.13)">
	<g id="XMLID_115_" transform="translate(992.741 244.972)">
		<path id="XMLID_116_" class="st0" d="M5.6,8.5C2.5,8.5,0,11,0,14.1s2.5,5.6,5.6,5.6s5.6-2.5,5.6-5.6C11.1,11,8.7,8.5,5.6,8.5z
			 M5.6,17.9c-2.1,0-3.8-1.7-3.8-3.8s1.7-3.8,3.8-3.8s3.8,1.7,3.8,3.8l0,0C9.3,16.2,7.7,17.8,5.6,17.9z"/>
	</g>
	<path id="XMLID_111_" class="st0" d="M1039.7,253.5c-3.1,0-5.6,2.5-5.6,5.6s2.5,5.6,5.6,5.6s5.6-2.5,5.6-5.6
		C1045.3,256,1042.8,253.5,1039.7,253.5z M1039.7,262.8c-2.1,0-3.8-1.7-3.8-3.8c0-2.1,1.7-3.8,3.8-3.8c2.1,0,3.8,1.7,3.8,3.8l0,0
		C1043.5,261.1,1041.8,262.8,1039.7,262.8z"/>
	<g id="XMLID_61_" transform="translate(986.071 231.13)">
		<path id="XMLID_105_" class="st0" d="M64.7,21.5c-0.3,0-0.4-0.2-0.4-0.6c0.1-1.4,0-2.9-0.2-4.3c-0.3-0.8-6.1-7-6.5-7.3
			C57,9,56.4,8.8,55.8,8.9c-0.7,0-11-0.4-13.4-0.4c-2.3,0-10,0.5-10,0.5c-1.7,0.1-3.5,0.4-5.1,1.1c-1.4,0.8-9.4,5.6-10.6,6.1
			c-4.3,0.4-8.6,1.2-12.8,2.3c-1.1,0.2-2.1,0.9-2.7,1.9c-0.1,0.5-0.5,2.5-0.5,2.5S0,23.2,0,23.9s0.1,3.9,0.1,4.5s1.1,1.1,1.8,1.1
			h3.8v-1.7c0-3.6,2.9-6.5,6.5-6.5s6.5,2.9,6.5,6.5v1.7l28.4-0.2v-1.5c0-3.6,2.9-6.5,6.5-6.5s6.5,2.9,6.5,6.5v1.3
			c0,0,2.2-0.2,2.6-0.2c0.4,0,0.7-0.1,0.9-0.4l1-1c0.3-0.3,0.6-0.7,0.7-1.1c0-0.3,0-3.5,0-4C65.4,21.9,65.1,21.6,64.7,21.5z
			 M64.7,26.2c-0.1,0.3-0.3,0.5-0.5,0.7l0,0l-1,1c-0.2,0.2-0.2,0.2-0.5,0.2s-1.2,0.1-1.9,0.1v-0.5c0-4-3.2-7.2-7.2-7.2
			s-7.2,3.2-7.2,7.2v0.8l-27,0.2v-1c0-4-3.2-7.2-7.2-7.2S5,23.7,5,27.7v1H2c-0.4,0-0.9-0.2-1.2-0.5c0-0.7-0.1-3.9-0.1-4.5l0,0
			c0,0,0.1-0.1,0.2-0.1c0.3,0,0.5-0.3,0.5-0.5C1.6,22.6,1.8,21,2,20.7c0.5-0.8,1.3-1.3,2.2-1.4C4.5,19.2,5,19.1,5.5,19
			c3.7-1,7.6-1.7,11.5-2c0.1,0,0.1,0,0.2,0c0.7-0.3,3.4-1.9,6-3.4c2.1-1.2,4-2.4,4.7-2.7c1.5-0.6,3.2-1,4.8-1c0.2,0,7.7-0.5,9.9-0.5
			c1.6,0,6.6,0.2,10,0.3c1.8,0,3.1,0.1,3.4,0.1c0.5,0,1,0,1.4,0.3c2.2,2.2,4.3,4.6,6.3,7c0.2,1.2,0.2,2.5,0.1,3.7v0.4
			c-0.1,0.6,0.3,1.2,1,1.3l0,0h0.1V23C64.7,23.6,64.7,25.9,64.7,26.2L64.7,26.2z"/>
		<path id="XMLID_104_" class="st1" d="M53,10.8c-0.4-0.3-0.2-0.3-1.9-0.5c-6.6-0.4-13.3-0.3-19.9,0.3c-1.4,0.2-2.7,0.7-3.9,1.4
			c-1.7,1.1-4.4,2.9-5,3.2c-0.4,0.3,0,0.7,0.1,0.8c0.2,0.2,0.7,1,1.2,1S57,15.5,57,15.5S53.4,11.1,53,10.8z"/>
	</g>
</g>
</svg>
